<svg version="1.1" id="Layer_1" xmlns="http://www.w3.org/2000/svg" xmlns:xlink="http://www.w3.org/1999/xlink" x="0px" y="0px" viewBox="0 0 256 256" style="enable-background:new 0 0 256 256;" xml:space="preserve">
<style type="text/css">
	.st0{fill:#626366;}
</style>
<path class="st0" d="M232.1,84.4c-5.7-13.5-13.9-25.6-24.3-36.1c-3.8-3.8-7.8-7.3-12.1-10.5c-1.4-1.1-3.5-0.5-4.1,1.2L187,51.4
	c-1,2.7-0.3,5.8,1.9,7.7c1.4,1.3,2.8,2.6,4.1,3.9c8.5,8.5,15.2,18.4,19.9,29.4c4.8,11.4,7.3,23.6,7.3,36.1s-2.4,24.6-7.3,36.1
	c-4.7,11-11.4,20.9-19.9,29.4s-18.4,15.2-29.4,19.9c-7.7,3.2-15.7,5.4-23.9,6.5c-2.1,0.3-4.1,1.4-5.5,3.1l-11.5,14.4
	c-1.3,1.6-0.2,4.1,1.9,4.1c1,0,2,0,3,0c15.3,0,30.2-3,44.2-8.9c13.5-5.7,25.6-13.9,36.1-24.3s18.6-22.6,24.3-36.1
	c5.9-14,8.9-28.9,8.9-44.2S238,98.4,232.1,84.4z"></path>
<path class="st0" d="M64.4,156.9l51.8-5l-32.1,99c-1,2.9,2.9,5,4.8,2.6l108.2-134.8c1.3-1.6,0-4-2.1-3.8l-51.1,4.9L186.3,5.8
	c1.1-3-2.8-5.2-4.8-2.7L62.4,153C61.1,154.7,62.4,157,64.4,156.9z"></path>
<path class="st0" d="M79.1,212.7c0.8-2.5-0.2-5.2-2.3-6.6c-5.2-3.4-10.2-7.4-14.7-12c-8.5-8.5-15.2-18.4-19.9-29.4
	c-4.8-11.4-7.3-23.6-7.3-36.1s2.5-24.6,7.3-36.1c4.7-11,11.3-20.9,19.9-29.5s18.4-15.2,29.5-19.9c11.4-4.8,23.6-7.3,36.1-7.3
	c1,0,2,0,3,0c2.2,0.1,4.3-0.9,5.7-2.7l10-12.6c1.3-1.6,0.3-4-1.7-4.3c-5.6-0.8-11.3-1.3-17-1.3c-15.3,0-30.2,3-44.2,8.9
	C69.9,29.8,57.8,38,47.3,48.4S28.7,70.9,23,84.4c-5.9,14-8.9,28.8-8.9,44.2s3,30.2,8.9,44.2c5.7,13.5,13.9,25.6,24.3,36.1
	c6.9,6.9,14.6,12.9,23,17.7c1.8,1.1,4.2,0.2,4.8-1.8L79.1,212.7z"></path>
</svg>